<?xml version="1.0" standalone="no"?><!DOCTYPE svg PUBLIC "-//W3C//DTD SVG 1.1//EN" "http://www.w3.org/Graphics/SVG/1.1/DTD/svg11.dtd"><svg t="1742471903263" class="icon" viewBox="0 0 1024 1024" version="1.1" xmlns="http://www.w3.org/2000/svg" p-id="4384" xmlns:xlink="http://www.w3.org/1999/xlink" width="24" height="24"><path d="M513.066667 554.666667a21.333333 21.333333 0 0 1 21.333333 21.333333v42.666667a21.333333 21.333333 0 0 1-21.333333 21.333333H341.333333c-79.573333 0-146.346667 54.4-165.333333 128A175.488 175.488 0 0 0 170.666667 810.666667v42.666666h342.4a21.333333 21.333333 0 0 1 21.333333 21.333334v42.666666a21.333333 21.333333 0 0 1-21.333333 21.333334H128c-23.466667 0-42.666667-19.093333-42.666667-42.666667v-85.333333c0-141.376 114.56-256 256-256h171.733334z m271.530666-15.082667l150.848 150.848a21.333333 21.333333 0 0 1 0 30.165333l-30.165333 30.165334a21.333333 21.333333 0 0 1-30.165333 0l-62.656-62.656v220.373333a21.333333 21.333333 0 0 1-21.333334 21.333333h-42.666666a21.333333 21.333333 0 0 1-21.333334-21.333333V687.552l-63.210666 63.232a21.333333 21.333333 0 0 1-30.165334 0l-30.165333-30.165333a21.333333 21.333333 0 0 1 0-30.165334l150.848-150.848a21.333333 21.333333 0 0 1 30.165333 0v-0.021333zM448 64c117.76 0 213.333333 95.509333 213.333333 213.333333s-95.573333 213.333333-213.333333 213.333334-213.333333-95.509333-213.333333-213.333334S330.24 64 448 64z m0 85.333333c-70.613333 0-128 57.301333-128 128s57.386667 128 128 128 128-57.301333 128-128-57.386667-128-128-128z" p-id="4385" fill="#c1c1c1"></path></svg>